<svg id="Layer_2" data-name="Layer 2" xmlns="http://www.w3.org/2000/svg" viewBox="0 0 1825.76 924.13"><defs><style>.cls-1,.cls-2{fill:#fff;}.cls-2{stroke:#fff;stroke-miterlimit:10;stroke-width:10px;}</style></defs><title>la_lines</title><path class="cls-1" d="M1379,570.74a5.53,5.53,0,1,0-5.53-5.53A5.54,5.54,0,0,0,1379,570.74Z" transform="translate(-65 -112.85)"/><path class="cls-1" d="M1793.37,122a4.55,4.55,0,1,0-4.55-4.55A4.56,4.56,0,0,0,1793.37,122Z" transform="translate(-65 -112.85)"/><path class="cls-1" d="M1666.52,362.66a6.67,6.67,0,1,0-6.67-6.67A6.68,6.68,0,0,0,1666.52,362.66Z" transform="translate(-65 -112.85)"/><path class="cls-1" d="M1707.88,520.23a4.2,4.2,0,0,0,5.36,0l24.5-20.23,24.5,20.23a4.21,4.21,0,0,0,5.36,0L1792.11,500l24.51,20.23a4.21,4.21,0,0,0,5.36-6.49l-27.19-22.45a4.21,4.21,0,0,0-5.36,0l-24.51,20.23-24.5-20.23a4.2,4.2,0,0,0-5.36,0l-24.5,20.23-24.49-20.23a4.21,4.21,0,1,0-5.36,6.49Z" transform="translate(-65 -112.85)"/><path class="cls-1" d="M643.69,162.34l-2.08.41c1,.13,2,.25,3,.37l-.1-.1Z" transform="translate(-65 -112.85)"/><path class="cls-1" d="M1421.22,197.13h31a4.21,4.21,0,0,0,0-8.42h-31a4.21,4.21,0,0,0,0,8.42Z" transform="translate(-65 -112.85)"/><path class="cls-1" d="M1452.19,207H1436.7a4.21,4.21,0,0,0,0,8.42h15.49a4.21,4.21,0,0,0,0-8.42Z" transform="translate(-65 -112.85)"/><path class="cls-1" d="M1476.12,163.46h5.81a4.21,4.21,0,1,0,0-8.42h-5.81a4.21,4.21,0,1,0,0,8.42Z" transform="translate(-65 -112.85)"/><path class="cls-1" d="M1456,179.67h9.16a23.18,23.18,0,0,0,18.29,37.48h59a23.21,23.21,0,0,0,4.22-46,30.72,30.72,0,0,0-60.15-.19,22.83,22.83,0,0,0-3.09-.21,23.28,23.28,0,0,0-5,.54H1456a4.21,4.21,0,1,0,0,8.42Zm27.44-.54a14.71,14.71,0,0,1,5.18,1,4.21,4.21,0,0,0,5.68-3.76,22.3,22.3,0,0,1,44.49-1,4.21,4.21,0,0,0,4.08,3.84,14.79,14.79,0,0,1-.42,29.58h-59a14.8,14.8,0,0,1,0-29.6Z" transform="translate(-65 -112.85)"/><path class="cls-1" d="M256.42,390.85l1.92.45a27.63,27.63,0,0,0-6.82-2.42l-1.31.92C252.3,390.05,254.37,390.4,256.42,390.85Z" transform="translate(-65 -112.85)"/><path class="cls-1" d="M1821.09,732.9v4h-4a4.21,4.21,0,0,0,0,8.42h4v4a4.21,4.21,0,1,0,8.42,0v-4h4a4.21,4.21,0,0,0,0-8.42h-4v-4a4.21,4.21,0,1,0-8.42,0Z" transform="translate(-65 -112.85)"/><path class="cls-1" d="M1287.11,393h4v4a4.21,4.21,0,1,0,8.42,0v-4h4a4.21,4.21,0,0,0,0-8.42h-4v-4a4.21,4.21,0,1,0-8.42,0v4h-4a4.21,4.21,0,0,0,0,8.42Z" transform="translate(-65 -112.85)"/><path class="cls-1" d="M639.61,593.21h4a4.21,4.21,0,0,0,0-8.42h-4v-4a4.21,4.21,0,0,0-8.42,0v4h-4a4.21,4.21,0,0,0,0,8.42h4v4a4.21,4.21,0,0,0,8.42,0Z" transform="translate(-65 -112.85)"/><path class="cls-1" d="M543.83,351.08c.23,1.08.48,2.15.72,3.23a4.09,4.09,0,0,0-.72-3.23Z" transform="translate(-65 -112.85)"/><path class="cls-1" d="M151.87,578.92H151v-.85a4.21,4.21,0,1,0-8.42,0v.85h-.84a4.21,4.21,0,0,0,0,8.42h.84v.84a4.21,4.21,0,1,0,8.42,0v-.84h.85a4.21,4.21,0,0,0,0-8.42Z" transform="translate(-65 -112.85)"/><path class="cls-1" d="M100.86,845.52h.84v.84a4.21,4.21,0,1,0,8.42,0v-.84H111a4.21,4.21,0,0,0,0-8.42h-.85v-.85a4.21,4.21,0,1,0-8.42,0v.85h-.84a4.21,4.21,0,0,0,0,8.42Z" transform="translate(-65 -112.85)"/><path class="cls-1" d="M1295.31,788.88a4.21,4.21,0,0,0,4.21-4.21v-.84h.84a4.21,4.21,0,1,0,0-8.42h-.84v-.84a4.21,4.21,0,1,0-8.42,0v.84h-.84a4.21,4.21,0,0,0,0,8.42h.84v.84A4.21,4.21,0,0,0,1295.31,788.88Z" transform="translate(-65 -112.85)"/><path class="cls-1" d="M1218.57,295.31h-18.92v-60a4.21,4.21,0,0,0-4.21-4.21h-87.37a4.21,4.21,0,0,0-4.21,4.21v60h-18.93a4.21,4.21,0,0,0-4.21,4.21v732.82a4.21,4.21,0,0,0,4.21,4.21h133.63a4.21,4.21,0,0,0,4.21-4.21V299.52A4.21,4.21,0,0,0,1218.57,295.31Zm-106.29-55.75h79v55.75h-8.56a4.21,4.21,0,0,0-4.21,4.21v58.87H1125V299.52a4.21,4.21,0,0,0-4.21-4.21h-8.55Zm83.58,788.57h-15.74V558.28a4.21,4.21,0,0,0-8.42,0v469.85H1164V558.28a4.21,4.21,0,0,0-8.42,0v469.85h-7.68V558.28a4.21,4.21,0,1,0-8.42,0v469.85h-7.69V558.28a4.21,4.21,0,1,0-8.42,0v469.85h-15.74V446.41h13.18a4.21,4.21,0,0,0,4.21-4.21V388.12h53.42V442.2a4.21,4.21,0,0,0,4.21,4.21h13.18Zm18.51,0h-10.09V442.2a4.21,4.21,0,0,0-4.21-4.21h-13.18V383.91a4.21,4.21,0,0,0-4.21-4.21h-61.84a4.21,4.21,0,0,0-4.21,4.21V438h-13.18a4.21,4.21,0,0,0-4.21,4.21v585.92h-10.09V303.73h27.48V362.6a4.21,4.21,0,0,0,4.21,4.21h61.84a4.21,4.21,0,0,0,4.21-4.21V303.73h27.48Z" transform="translate(-65 -112.85)"/><path class="cls-1" d="M1114.13,543.45a4.21,4.21,0,0,0,4.21,4.21h66.82a4.21,4.21,0,0,0,0-8.42h-66.82A4.21,4.21,0,0,0,1114.13,543.45Z" transform="translate(-65 -112.85)"/><path class="cls-1" d="M1108.13,224h87.3a4.21,4.21,0,0,0,0-8.42h-87.3a4.21,4.21,0,0,0,0,8.42Z" transform="translate(-65 -112.85)"/><path class="cls-1" d="M1108.13,208.77h87.3a4.21,4.21,0,0,0,0-8.42h-87.3a4.21,4.21,0,0,0,0,8.42Z" transform="translate(-65 -112.85)"/><path class="cls-1" d="M1108.13,193.58h87.3a4.21,4.21,0,0,0,0-8.42h-87.3a4.21,4.21,0,0,0,0,8.42Z" transform="translate(-65 -112.85)"/><path class="cls-1" d="M1127.59,522.14a4.21,4.21,0,0,0,4.21-4.21V466a4.21,4.21,0,1,0-8.42,0v51.92A4.21,4.21,0,0,0,1127.59,522.14Z" transform="translate(-65 -112.85)"/><path class="cls-1" d="M1143.7,522.14a4.21,4.21,0,0,0,4.21-4.21V466a4.21,4.21,0,1,0-8.42,0v51.92A4.21,4.21,0,0,0,1143.7,522.14Z" transform="translate(-65 -112.85)"/><path class="cls-1" d="M1159.8,522.14a4.21,4.21,0,0,0,4.21-4.21V466a4.21,4.21,0,0,0-8.42,0v51.92A4.21,4.21,0,0,0,1159.8,522.14Z" transform="translate(-65 -112.85)"/><path class="cls-1" d="M1175.91,522.14a4.21,4.21,0,0,0,4.21-4.21V466a4.21,4.21,0,0,0-8.42,0v51.92A4.21,4.21,0,0,0,1175.91,522.14Z" transform="translate(-65 -112.85)"/><path class="cls-1" d="M1342.66,853.4a4.21,4.21,0,0,0-4.21,4.21v9.13a4.21,4.21,0,0,0,8.42,0v-9.13A4.21,4.21,0,0,0,1342.66,853.4Z" transform="translate(-65 -112.85)"/><path class="cls-1" d="M1352.7,853.4a4.21,4.21,0,0,0-4.21,4.21v9.13a4.21,4.21,0,0,0,8.42,0v-9.13A4.21,4.21,0,0,0,1352.7,853.4Z" transform="translate(-65 -112.85)"/><path class="cls-1" d="M1374,853.4a4.21,4.21,0,0,0-4.21,4.21v9.13a4.21,4.21,0,0,0,8.42,0v-9.13A4.21,4.21,0,0,0,1374,853.4Z" transform="translate(-65 -112.85)"/><path class="cls-1" d="M1384.07,853.4a4.21,4.21,0,0,0-4.21,4.21v9.13a4.21,4.21,0,0,0,8.42,0v-9.13A4.21,4.21,0,0,0,1384.07,853.4Z" transform="translate(-65 -112.85)"/><path class="cls-1" d="M1405.4,853.4a4.21,4.21,0,0,0-4.21,4.21v9.13a4.21,4.21,0,1,0,8.42,0v-9.13A4.21,4.21,0,0,0,1405.4,853.4Z" transform="translate(-65 -112.85)"/><path class="cls-1" d="M1415.44,853.4a4.21,4.21,0,0,0-4.21,4.21v9.13a4.21,4.21,0,1,0,8.42,0v-9.13A4.21,4.21,0,0,0,1415.44,853.4Z" transform="translate(-65 -112.85)"/><path class="cls-1" d="M1436.76,853.4a4.21,4.21,0,0,0-4.21,4.21v9.13a4.21,4.21,0,0,0,8.42,0v-9.13A4.21,4.21,0,0,0,1436.76,853.4Z" transform="translate(-65 -112.85)"/><path class="cls-1" d="M1446.8,853.4a4.21,4.21,0,0,0-4.21,4.21v9.13a4.21,4.21,0,0,0,8.42,0v-9.13A4.21,4.21,0,0,0,1446.8,853.4Z" transform="translate(-65 -112.85)"/><path class="cls-1" d="M1342.66,883.49a4.21,4.21,0,0,0-4.21,4.21v9.13a4.21,4.21,0,0,0,8.42,0V887.7A4.21,4.21,0,0,0,1342.66,883.49Z" transform="translate(-65 -112.85)"/><path class="cls-1" d="M1352.7,883.49a4.21,4.21,0,0,0-4.21,4.21v9.13a4.21,4.21,0,0,0,8.42,0V887.7A4.21,4.21,0,0,0,1352.7,883.49Z" transform="translate(-65 -112.85)"/><path class="cls-1" d="M1374,883.49a4.21,4.21,0,0,0-4.21,4.21v9.13a4.21,4.21,0,0,0,8.42,0V887.7A4.21,4.21,0,0,0,1374,883.49Z" transform="translate(-65 -112.85)"/><path class="cls-1" d="M1384.07,883.49a4.21,4.21,0,0,0-4.21,4.21v9.13a4.21,4.21,0,0,0,8.42,0V887.7A4.21,4.21,0,0,0,1384.07,883.49Z" transform="translate(-65 -112.85)"/><path class="cls-1" d="M1405.4,883.49a4.21,4.21,0,0,0-4.21,4.21v9.13a4.21,4.21,0,1,0,8.42,0V887.7A4.21,4.21,0,0,0,1405.4,883.49Z" transform="translate(-65 -112.85)"/><path class="cls-1" d="M1415.44,883.49a4.21,4.21,0,0,0-4.21,4.21v9.13a4.21,4.21,0,1,0,8.42,0V887.7A4.21,4.21,0,0,0,1415.44,883.49Z" transform="translate(-65 -112.85)"/><path class="cls-1" d="M1436.76,883.49a4.21,4.21,0,0,0-4.21,4.21v9.13a4.21,4.21,0,0,0,8.42,0V887.7A4.21,4.21,0,0,0,1436.76,883.49Z" transform="translate(-65 -112.85)"/><path class="cls-1" d="M1446.8,883.49a4.21,4.21,0,0,0-4.21,4.21v9.13a4.21,4.21,0,0,0,8.42,0V887.7A4.21,4.21,0,0,0,1446.8,883.49Z" transform="translate(-65 -112.85)"/><path class="cls-1" d="M1342.66,913.58a4.21,4.21,0,0,0-4.21,4.21v9.13a4.21,4.21,0,0,0,8.42,0v-9.13A4.21,4.21,0,0,0,1342.66,913.58Z" transform="translate(-65 -112.85)"/><path class="cls-1" d="M1281.92,949.49a4.21,4.21,0,0,0-4.21,4.21v4.57a4.21,4.21,0,1,0,8.42,0V953.7A4.21,4.21,0,0,0,1281.92,949.49Z" transform="translate(-65 -112.85)"/><path class="cls-1" d="M1320.83,949.49a4.21,4.21,0,0,0-4.21,4.21v4.57a4.21,4.21,0,0,0,8.42,0V953.7A4.21,4.21,0,0,0,1320.83,949.49Z" transform="translate(-65 -112.85)"/><path class="cls-1" d="M1359.74,962.48a4.21,4.21,0,0,0,4.21-4.21V953.7a4.21,4.21,0,0,0-8.42,0v4.57A4.21,4.21,0,0,0,1359.74,962.48Z" transform="translate(-65 -112.85)"/><path class="cls-1" d="M1398.66,962.48a4.21,4.21,0,0,0,4.21-4.21V953.7a4.21,4.21,0,0,0-8.42,0v4.57A4.21,4.21,0,0,0,1398.66,962.48Z" transform="translate(-65 -112.85)"/><path class="cls-1" d="M1437.57,962.48a4.21,4.21,0,0,0,4.21-4.21V953.7a4.21,4.21,0,0,0-8.42,0v4.57A4.21,4.21,0,0,0,1437.57,962.48Z" transform="translate(-65 -112.85)"/><path class="cls-1" d="M1352.7,913.58a4.21,4.21,0,0,0-4.21,4.21v9.13a4.21,4.21,0,0,0,8.42,0v-9.13A4.21,4.21,0,0,0,1352.7,913.58Z" transform="translate(-65 -112.85)"/><path class="cls-1" d="M1374,913.58a4.21,4.21,0,0,0-4.21,4.21v9.13a4.21,4.21,0,0,0,8.42,0v-9.13A4.21,4.21,0,0,0,1374,913.58Z" transform="translate(-65 -112.85)"/><path class="cls-1" d="M1384.07,913.58a4.21,4.21,0,0,0-4.21,4.21v9.13a4.21,4.21,0,0,0,8.42,0v-9.13A4.21,4.21,0,0,0,1384.07,913.58Z" transform="translate(-65 -112.85)"/><path class="cls-1" d="M1405.4,913.58a4.21,4.21,0,0,0-4.21,4.21v9.13a4.21,4.21,0,1,0,8.42,0v-9.13A4.21,4.21,0,0,0,1405.4,913.58Z" transform="translate(-65 -112.85)"/><path class="cls-1" d="M1415.44,913.58a4.21,4.21,0,0,0-4.21,4.21v9.13a4.21,4.21,0,1,0,8.42,0v-9.13A4.21,4.21,0,0,0,1415.44,913.58Z" transform="translate(-65 -112.85)"/><path class="cls-1" d="M1436.76,913.58a4.21,4.21,0,0,0-4.21,4.21v9.13a4.21,4.21,0,0,0,8.42,0v-9.13A4.21,4.21,0,0,0,1436.76,913.58Z" transform="translate(-65 -112.85)"/><path class="cls-1" d="M1446.8,913.58a4.21,4.21,0,0,0-4.21,4.21v9.13a4.21,4.21,0,0,0,8.42,0v-9.13A4.21,4.21,0,0,0,1446.8,913.58Z" transform="translate(-65 -112.85)"/><path class="cls-1" d="M1282.35,1021.86h13a4.21,4.21,0,0,0,4.21-4.21V990.94a10.69,10.69,0,0,0-21.37,0v26.71A4.21,4.21,0,0,0,1282.35,1021.86Zm4.21-30.92a2.27,2.27,0,0,1,4.54,0v22.5h-4.54Z" transform="translate(-65 -112.85)"/><path class="cls-1" d="M1310.72,1021.86h13a4.21,4.21,0,0,0,4.21-4.21V990.94a10.69,10.69,0,0,0-21.37,0v26.71A4.21,4.21,0,0,0,1310.72,1021.86Zm4.21-30.92a2.27,2.27,0,0,1,4.54,0v22.5h-4.54Z" transform="translate(-65 -112.85)"/><path class="cls-1" d="M1339.08,1021.86h13a4.21,4.21,0,0,0,4.21-4.21V990.94a10.69,10.69,0,0,0-21.37,0v26.71A4.21,4.21,0,0,0,1339.08,1021.86Zm4.21-30.92a2.27,2.27,0,0,1,4.54,0v22.5h-4.54Z" transform="translate(-65 -112.85)"/><path class="cls-1" d="M1367.45,1021.86h13a4.21,4.21,0,0,0,4.21-4.21V990.94a10.69,10.69,0,0,0-21.37,0v26.71A4.21,4.21,0,0,0,1367.45,1021.86Zm4.21-30.92a2.27,2.27,0,0,1,4.54,0v22.5h-4.54Z" transform="translate(-65 -112.85)"/><path class="cls-1" d="M1395.81,1021.86h13a4.21,4.21,0,0,0,4.21-4.21V990.94a10.69,10.69,0,0,0-21.37,0v26.71A4.21,4.21,0,0,0,1395.81,1021.86Zm4.21-30.92a2.27,2.27,0,0,1,4.54,0v22.5H1400Z" transform="translate(-65 -112.85)"/><path class="cls-1" d="M1424.18,1021.86h13a4.21,4.21,0,0,0,4.21-4.21V990.94a10.69,10.69,0,0,0-21.37,0v26.71A4.21,4.21,0,0,0,1424.18,1021.86Zm4.21-30.92a2.27,2.27,0,0,1,4.54,0v22.5h-4.54Z" transform="translate(-65 -112.85)"/><path class="cls-1" d="M1479,1013.2h117.27a4.21,4.21,0,0,0,4.21-4.21v-40.3a14,14,0,0,0-23.76-10,13.91,13.91,0,0,0-19.54,0,13.92,13.92,0,0,0-19.55,0,13.91,13.91,0,0,0-19.54,0,13.92,13.92,0,0,0-19.55,0,14,14,0,0,0-23.75,10V1009A4.21,4.21,0,0,0,1479,1013.2Zm101.93-44.51a5.56,5.56,0,0,1,11.13,0v36.09h-11.13Zm-19.54,0a5.56,5.56,0,0,1,11.12,0v36.09h-11.12Zm-19.55,0a5.56,5.56,0,0,1,11.13,0v36.09h-11.13Zm-19.54,0a5.56,5.56,0,1,1,11.12,0v36.09h-11.12Zm-19.55,0a5.56,5.56,0,0,1,11.13,0v36.09h-11.13Zm-19.54,0a5.56,5.56,0,1,1,11.12,0v36.09H1483.2Z" transform="translate(-65 -112.85)"/><path class="cls-1" d="M1471,1015.95a4.21,4.21,0,0,0,0,8.42h133.27a4.21,4.21,0,0,0,0-8.42Z" transform="translate(-65 -112.85)"/><path class="cls-1" d="M1499.61,497.43a4.21,4.21,0,0,0,4.21,4.21h65.11a4.21,4.21,0,0,0,0-8.42h-65.11A4.21,4.21,0,0,0,1499.61,497.43Z" transform="translate(-65 -112.85)"/><path class="cls-1" d="M1509.61,481.2a4.21,4.21,0,0,0,0,8.42h53.54a4.21,4.21,0,0,0,0-8.42Z" transform="translate(-65 -112.85)"/><path class="cls-1" d="M1512.19,473.38a4.21,4.21,0,0,0,4.21,4.21h40a4.21,4.21,0,0,0,0-8.42h-40A4.21,4.21,0,0,0,1512.19,473.38Z" transform="translate(-65 -112.85)"/><path class="cls-1" d="M1536.38,421.94a4.21,4.21,0,0,0-4.21,4.21v31h-7.54a4.21,4.21,0,0,0,0,8.42h23.5a4.21,4.21,0,0,0,0-8.42h-7.54v-31A4.21,4.21,0,0,0,1536.38,421.94Z" transform="translate(-65 -112.85)"/><path class="cls-1" d="M1518,560.95a4.21,4.21,0,1,0,0-8.42h-9.46a4.21,4.21,0,0,0,0,8.42h.53v49.14h-.53a4.21,4.21,0,0,0,0,8.42H1518a4.21,4.21,0,1,0,0-8.42h-.52V560.95Z" transform="translate(-65 -112.85)"/><path class="cls-1" d="M1542.38,560.95a4.21,4.21,0,0,0,0-8.42h-9.47a4.21,4.21,0,0,0,0,8.42h.53v49.14h-.53a4.21,4.21,0,0,0,0,8.42h9.47a4.21,4.21,0,0,0,0-8.42h-.53V560.95Z" transform="translate(-65 -112.85)"/><path class="cls-1" d="M1566.73,560.95a4.21,4.21,0,1,0,0-8.42h-9.46a4.21,4.21,0,0,0,0,8.42h.53v49.14h-.53a4.21,4.21,0,0,0,0,8.42h9.46a4.21,4.21,0,1,0,0-8.42h-.52V560.95Z" transform="translate(-65 -112.85)"/><path class="cls-1" d="M1732.63,853.4a4.21,4.21,0,0,0-4.21,4.21v9.13a4.21,4.21,0,1,0,8.42,0v-9.13A4.21,4.21,0,0,0,1732.63,853.4Z" transform="translate(-65 -112.85)"/><path class="cls-1" d="M1722.59,853.4a4.21,4.21,0,0,0-4.21,4.21v9.13a4.21,4.21,0,0,0,8.42,0v-9.13A4.21,4.21,0,0,0,1722.59,853.4Z" transform="translate(-65 -112.85)"/><path class="cls-1" d="M1701.26,853.4a4.21,4.21,0,0,0-4.21,4.21v9.13a4.21,4.21,0,0,0,8.42,0v-9.13A4.21,4.21,0,0,0,1701.26,853.4Z" transform="translate(-65 -112.85)"/><path class="cls-1" d="M1691.22,853.4a4.21,4.21,0,0,0-4.21,4.21v9.13a4.21,4.21,0,1,0,8.42,0v-9.13A4.21,4.21,0,0,0,1691.22,853.4Z" transform="translate(-65 -112.85)"/><path class="cls-1" d="M1669.89,853.4a4.21,4.21,0,0,0-4.21,4.21v9.13a4.21,4.21,0,0,0,8.42,0v-9.13A4.21,4.21,0,0,0,1669.89,853.4Z" transform="translate(-65 -112.85)"/><path class="cls-1" d="M1659.85,853.4a4.21,4.21,0,0,0-4.21,4.21v9.13a4.21,4.21,0,0,0,8.42,0v-9.13A4.21,4.21,0,0,0,1659.85,853.4Z" transform="translate(-65 -112.85)"/><path class="cls-1" d="M1638.53,853.4a4.21,4.21,0,0,0-4.21,4.21v9.13a4.21,4.21,0,1,0,8.42,0v-9.13A4.21,4.21,0,0,0,1638.53,853.4Z" transform="translate(-65 -112.85)"/><path class="cls-1" d="M1628.49,853.4a4.21,4.21,0,0,0-4.21,4.21v9.13a4.21,4.21,0,1,0,8.42,0v-9.13A4.21,4.21,0,0,0,1628.49,853.4Z" transform="translate(-65 -112.85)"/><path class="cls-1" d="M1732.63,883.49a4.21,4.21,0,0,0-4.21,4.21v9.13a4.21,4.21,0,1,0,8.42,0V887.7A4.21,4.21,0,0,0,1732.63,883.49Z" transform="translate(-65 -112.85)"/><path class="cls-1" d="M1722.59,883.49a4.21,4.21,0,0,0-4.21,4.21v9.13a4.21,4.21,0,0,0,8.42,0V887.7A4.21,4.21,0,0,0,1722.59,883.49Z" transform="translate(-65 -112.85)"/><path class="cls-1" d="M1701.26,883.49a4.21,4.21,0,0,0-4.21,4.21v9.13a4.21,4.21,0,0,0,8.42,0V887.7A4.21,4.21,0,0,0,1701.26,883.49Z" transform="translate(-65 -112.85)"/><path class="cls-1" d="M1691.22,883.49a4.21,4.21,0,0,0-4.21,4.21v9.13a4.21,4.21,0,1,0,8.42,0V887.7A4.21,4.21,0,0,0,1691.22,883.49Z" transform="translate(-65 -112.85)"/><path class="cls-1" d="M1669.89,883.49a4.21,4.21,0,0,0-4.21,4.21v9.13a4.21,4.21,0,0,0,8.42,0V887.7A4.21,4.21,0,0,0,1669.89,883.49Z" transform="translate(-65 -112.85)"/><path class="cls-1" d="M1659.85,883.49a4.21,4.21,0,0,0-4.21,4.21v9.13a4.21,4.21,0,0,0,8.42,0V887.7A4.21,4.21,0,0,0,1659.85,883.49Z" transform="translate(-65 -112.85)"/><path class="cls-1" d="M1638.53,883.49a4.21,4.21,0,0,0-4.21,4.21v9.13a4.21,4.21,0,1,0,8.42,0V887.7A4.21,4.21,0,0,0,1638.53,883.49Z" transform="translate(-65 -112.85)"/><path class="cls-1" d="M1628.49,883.49a4.21,4.21,0,0,0-4.21,4.21v9.13a4.21,4.21,0,1,0,8.42,0V887.7A4.21,4.21,0,0,0,1628.49,883.49Z" transform="translate(-65 -112.85)"/><path class="cls-1" d="M1732.63,913.58a4.21,4.21,0,0,0-4.21,4.21v9.13a4.21,4.21,0,1,0,8.42,0v-9.13A4.21,4.21,0,0,0,1732.63,913.58Z" transform="translate(-65 -112.85)"/><path class="cls-1" d="M1793.37,962.48a4.21,4.21,0,0,0,4.21-4.21V953.7a4.21,4.21,0,0,0-8.42,0v4.57A4.21,4.21,0,0,0,1793.37,962.48Z" transform="translate(-65 -112.85)"/><path class="cls-1" d="M1754.46,962.48a4.21,4.21,0,0,0,4.21-4.21V953.7a4.21,4.21,0,0,0-8.42,0v4.57A4.21,4.21,0,0,0,1754.46,962.48Z" transform="translate(-65 -112.85)"/><path class="cls-1" d="M1715.55,949.49a4.21,4.21,0,0,0-4.21,4.21v4.57a4.21,4.21,0,0,0,8.42,0V953.7A4.21,4.21,0,0,0,1715.55,949.49Z" transform="translate(-65 -112.85)"/><path class="cls-1" d="M1676.63,949.49a4.21,4.21,0,0,0-4.21,4.21v4.57a4.21,4.21,0,0,0,8.42,0V953.7A4.21,4.21,0,0,0,1676.63,949.49Z" transform="translate(-65 -112.85)"/><path class="cls-1" d="M1637.72,949.49a4.21,4.21,0,0,0-4.21,4.21v4.57a4.21,4.21,0,1,0,8.42,0V953.7A4.21,4.21,0,0,0,1637.72,949.49Z" transform="translate(-65 -112.85)"/><path class="cls-1" d="M1722.59,913.58a4.21,4.21,0,0,0-4.21,4.21v9.13a4.21,4.21,0,0,0,8.42,0v-9.13A4.21,4.21,0,0,0,1722.59,913.58Z" transform="translate(-65 -112.85)"/><path class="cls-1" d="M1701.26,913.58a4.21,4.21,0,0,0-4.21,4.21v9.13a4.21,4.21,0,0,0,8.42,0v-9.13A4.21,4.21,0,0,0,1701.26,913.58Z" transform="translate(-65 -112.85)"/><path class="cls-1" d="M1691.22,913.58a4.21,4.21,0,0,0-4.21,4.21v9.13a4.21,4.21,0,1,0,8.42,0v-9.13A4.21,4.21,0,0,0,1691.22,913.58Z" transform="translate(-65 -112.85)"/><path class="cls-1" d="M1669.89,913.58a4.21,4.21,0,0,0-4.21,4.21v9.13a4.21,4.21,0,0,0,8.42,0v-9.13A4.21,4.21,0,0,0,1669.89,913.58Z" transform="translate(-65 -112.85)"/><path class="cls-1" d="M1659.85,913.58a4.21,4.21,0,0,0-4.21,4.21v9.13a4.21,4.21,0,0,0,8.42,0v-9.13A4.21,4.21,0,0,0,1659.85,913.58Z" transform="translate(-65 -112.85)"/><path class="cls-1" d="M1638.53,913.58a4.21,4.21,0,0,0-4.21,4.21v9.13a4.21,4.21,0,1,0,8.42,0v-9.13A4.21,4.21,0,0,0,1638.53,913.58Z" transform="translate(-65 -112.85)"/><path class="cls-1" d="M1628.49,913.58a4.21,4.21,0,0,0-4.21,4.21v9.13a4.21,4.21,0,1,0,8.42,0v-9.13A4.21,4.21,0,0,0,1628.49,913.58Z" transform="translate(-65 -112.85)"/><path class="cls-1" d="M1817.09,965.05H1815V943.23a4.21,4.21,0,0,0-4.21-4.21h-59.93V841.31c0-.08,0-.15,0-.22a4.44,4.44,0,0,0,0-.47c0-.13,0-.25-.08-.38s-.08-.27-.13-.4a3.21,3.21,0,0,0-.16-.36,3.37,3.37,0,0,0-.2-.36c-.07-.11-.14-.22-.22-.32a3.32,3.32,0,0,0-.27-.33,3.26,3.26,0,0,0-.28-.27l-.32-.27-.36-.24c-.07,0-.13-.09-.21-.13l-38.72-19.79a4.23,4.23,0,0,0-1.91-.46h-98.47V636a4.21,4.21,0,0,0-4.21-4.21h-17.09v-96a4.21,4.21,0,0,0-4.21-4.21h-9.49v-22.3a4.21,4.21,0,0,0-4.21-4.21H1505a4.21,4.21,0,0,0-4.21,4.21v22.3h-9.48a4.21,4.21,0,0,0-4.21,4.21v96h-17.09a4.21,4.21,0,0,0-4.21,4.21V817.31h-98.47a4.23,4.23,0,0,0-1.92.46l-38.72,19.79-.2.13a4.16,4.16,0,0,0-.37.24l-.32.27a3.81,3.81,0,0,0-.28.27c-.1.11-.19.22-.27.33s-.15.21-.22.32-.14.24-.2.36-.11.24-.16.36a3.54,3.54,0,0,0-.12.4c0,.12-.07.25-.09.38a4.42,4.42,0,0,0,0,.47c0,.07,0,.14,0,.22V939h-59.93a4.21,4.21,0,0,0-4.21,4.21v21.82h-2.1a4.21,4.21,0,0,0,0,8.42h2.1v58.87a4.21,4.21,0,0,0,4.21,4.21h546.27a4.21,4.21,0,0,0,4.21-4.21V973.47h2.1a4.21,4.21,0,1,0,0-8.42ZM1609.45,825.72h97.46l22.25,11.38H1609.45Zm-21.3-185.54H1601V939h-12.88Zm-78.91-126.77H1566v18.09h-56.79Zm-13.69,26.51h84.18v91.84h-84.18Zm0,100.26h84.18V939h-9.48V918.87a4.21,4.21,0,0,0-8.42,0V939h-11.77V871.37a4.21,4.21,0,1,0-8.42,0V939h-9.57V899.16a4.21,4.21,0,1,0-8.42,0V939h-10.22V902.74a4.21,4.21,0,0,0-8.42,0V939h-9.48Zm-21.29,201.13V640.18h12.87V939h-12.87Zm-105.88-15.59h97.46V837.1H1346.13Zm83.53,202.4h-183.2V973.47h183.2Zm0-63.07h-183.2V947.44h183.2Zm-119.05-26V845.52h133V939h-133Zm282.1,89.1H1460.33V947.44H1615Zm-5.51-89.1V845.52h133V939h-133Zm197.12,89.1H1623.38V973.47h183.19Zm0-63.07H1623.38V947.44h183.19Z" transform="translate(-65 -112.85)"/><path class="cls-1" d="M1780,1021.86h13a4.21,4.21,0,0,0,4.21-4.21V990.94a10.69,10.69,0,0,0-21.37,0v26.71A4.21,4.21,0,0,0,1780,1021.86Zm4.21-30.92a2.27,2.27,0,0,1,4.54,0v22.5h-4.54Z" transform="translate(-65 -112.85)"/><path class="cls-1" d="M1751.62,1021.86h13a4.21,4.21,0,0,0,4.21-4.21V990.94a10.69,10.69,0,0,0-21.37,0v26.71A4.21,4.21,0,0,0,1751.62,1021.86Zm4.21-30.92a2.27,2.27,0,0,1,4.54,0v22.5h-4.54Z" transform="translate(-65 -112.85)"/><path class="cls-1" d="M1723.25,1021.86h13a4.21,4.21,0,0,0,4.21-4.21V990.94a10.69,10.69,0,0,0-21.37,0v26.71A4.21,4.21,0,0,0,1723.25,1021.86Zm4.21-30.92a2.27,2.27,0,0,1,4.54,0v22.5h-4.54Z" transform="translate(-65 -112.85)"/><path class="cls-1" d="M1694.89,1021.86h13a4.21,4.21,0,0,0,4.21-4.21V990.94a10.69,10.69,0,0,0-21.37,0v26.71A4.21,4.21,0,0,0,1694.89,1021.86Zm4.21-30.92a2.27,2.27,0,0,1,4.54,0v22.5h-4.54Z" transform="translate(-65 -112.85)"/><path class="cls-1" d="M1666.52,1021.86h13a4.21,4.21,0,0,0,4.21-4.21V990.94a10.69,10.69,0,0,0-21.37,0v26.71A4.21,4.21,0,0,0,1666.52,1021.86Zm4.21-30.92a2.27,2.27,0,0,1,4.54,0v22.5h-4.54Z" transform="translate(-65 -112.85)"/><path class="cls-1" d="M1638.16,1021.86h13a4.21,4.21,0,0,0,4.21-4.21V990.94a10.69,10.69,0,0,0-21.37,0v26.71A4.21,4.21,0,0,0,1638.16,1021.86Zm4.21-30.92a2.27,2.27,0,0,1,4.54,0v22.5h-4.54Z" transform="translate(-65 -112.85)"/><path class="cls-1" d="M1527.88,869.55a4.21,4.21,0,0,0,4.21-4.21V849.88a4.21,4.21,0,1,0-8.42,0v15.46A4.21,4.21,0,0,0,1527.88,869.55Z" transform="translate(-65 -112.85)"/><path class="cls-1" d="M1545.86,809.28a4.21,4.21,0,0,0,4.21-4.21V789.61a4.21,4.21,0,1,0-8.42,0v15.46A4.21,4.21,0,0,0,1545.86,809.28Z" transform="translate(-65 -112.85)"/><path class="cls-1" d="M1566,883.64a4.21,4.21,0,0,0,4.21-4.21v-2.16a4.21,4.21,0,0,0-8.42,0v2.16A4.21,4.21,0,0,0,1566,883.64Z" transform="translate(-65 -112.85)"/><path class="cls-1" d="M1527.88,744.76a4.21,4.21,0,0,0,4.21-4.21v-2.16a4.21,4.21,0,1,0-8.42,0v2.16A4.21,4.21,0,0,0,1527.88,744.76Z" transform="translate(-65 -112.85)"/><path class="cls-1" d="M1509.24,877.58a4.3,4.3,0,0,0,4.21-4.31,4.21,4.21,0,0,0-8.42,0v.2A4.12,4.12,0,0,0,1509.24,877.58Z" transform="translate(-65 -112.85)"/><path class="cls-1" d="M855.7,792.79a27.48,27.48,0,1,0,27.48-27.48A27.51,27.51,0,0,0,855.7,792.79Zm46.55,0a19.06,19.06,0,1,1-19.07-19.06A19.09,19.09,0,0,1,902.25,792.79Z" transform="translate(-65 -112.85)"/><path class="cls-1" d="M838.26,991a4.21,4.21,0,0,0-4.21,4.21V1017a4.21,4.21,0,0,0,8.42,0V995.25A4.21,4.21,0,0,0,838.26,991Z" transform="translate(-65 -112.85)"/><path class="cls-1" d="M856.23,991a4.21,4.21,0,0,0-4.21,4.21V1017a4.21,4.21,0,0,0,8.42,0V995.25A4.21,4.21,0,0,0,856.23,991Z" transform="translate(-65 -112.85)"/><path class="cls-1" d="M874.19,991a4.21,4.21,0,0,0-4.21,4.21V1017a4.21,4.21,0,0,0,8.42,0V995.25A4.21,4.21,0,0,0,874.19,991Z" transform="translate(-65 -112.85)"/><path class="cls-1" d="M892.16,991a4.21,4.21,0,0,0-4.21,4.21V1017a4.21,4.21,0,0,0,8.42,0V995.25A4.21,4.21,0,0,0,892.16,991Z" transform="translate(-65 -112.85)"/><path class="cls-1" d="M905.92,1017a4.21,4.21,0,0,0,8.42,0V995.25a4.21,4.21,0,1,0-8.42,0Z" transform="translate(-65 -112.85)"/><path class="cls-1" d="M928.1,1021.21a4.21,4.21,0,0,0,4.21-4.21V995.25a4.21,4.21,0,1,0-8.42,0V1017A4.21,4.21,0,0,0,928.1,1021.21Z" transform="translate(-65 -112.85)"/><path class="cls-1" d="M995,814.24a4.21,4.21,0,0,0-4.21-4.21h-8l4.88-21.63h9a4.21,4.21,0,0,0,0-8.42h-7.1l5.44-24.1h9.58a4.21,4.21,0,0,0,0-8.42h-7.76l17.35-61.53a4.18,4.18,0,0,0-2.89-5.17l10.48-37.19a4.21,4.21,0,0,0-8.1-2.29l-11.07,39.29H999l16.72-59.33a4.21,4.21,0,0,0-8.1-2.29l-17.38,61.62H989.2a4.19,4.19,0,0,0-1.29.21l-.18.05a4,4,0,0,0-1,.55l-.19.15a4.21,4.21,0,0,0-.79.83l0,.05h0a87.76,87.76,0,0,1-13,13.84c-12.61-11.23-19.25-33-21.59-42.26-1-4.12-3.1-13.48-5.54-24.91v0c-1.79-8.42-3.8-17.95-5.76-27.38a.64.64,0,0,0,0-.07c-4.93-23.66-9.6-46.53-10.11-49V532.42a4.21,4.21,0,0,0-4.21-4.21H912.77a4.21,4.21,0,0,0-4.21,4.21V549H857.8V532.42a4.21,4.21,0,0,0-4.21-4.21H840.92a4.21,4.21,0,0,0-4.21,4.21V552.6c-1,4.81-17.69,86.63-21.43,101.4-2.33,9.23-9,31-21.56,42.23a88.38,88.38,0,0,1-13-13.82h0l0,0a4.18,4.18,0,0,0-.81-.85l-.18-.15a4.11,4.11,0,0,0-1-.55l-.18-.05a4.25,4.25,0,0,0-1.22-.2h-1.14L758.72,619a4.21,4.21,0,0,0-8.1,2.29l16.73,59.33h-3.5l-11.08-39.29a4.21,4.21,0,0,0-8.1,2.29l10.48,37.19a4.18,4.18,0,0,0-2.89,5.17l17.34,61.53h-7.39a4.21,4.21,0,1,0,0,8.42h9.58l5.44,24.1h-7.29a4.21,4.21,0,1,0,0,8.42h9.19L784,810h-8.23a4.21,4.21,0,0,0,0,8.42h10.13l4.68,20.74v193.59a4.21,4.21,0,0,0,4.21,4.21H971.94a4.21,4.21,0,0,0,4.21-4.21V839.18l4.68-20.74h9.94A4.21,4.21,0,0,0,995,814.24ZM992.34,689h12.16L988,747.46H975.86ZM917,536.63h4.26V549H917Zm-71.86,0h4.26V549h-4.26Zm-.81,20.77H922c.61,3,1.57,7.67,2.76,13.46H841.56Zm-4.49,21.87h86.71c1.21,5.87,2.55,12.35,3.93,19H835.89C837.28,591.62,838.62,585.14,839.83,579.27Zm-5.69,27.43h98.08c1.35,6.49,2.71,12.95,4,19H830.14C831.43,619.65,832.78,613.19,834.14,606.7Zm-5.8,27.43H938c1.71,7.95,3.18,14.66,4.21,19H824.14C825.17,648.79,826.64,642.08,828.34,634.13Zm-6.41,27.43h122.5a130.82,130.82,0,0,0,7.15,19H814.78A131.18,131.18,0,0,0,821.93,661.57ZM810.25,689H956.11a60.88,60.88,0,0,0,10,12.64c-2.76,2.11-5.83,4.26-9.2,6.38H809.54c-3.39-2.13-6.48-4.29-9.26-6.41A60.93,60.93,0,0,0,810.25,689Zm130.89,27.43c-15.18,6.8-34.4,11.9-58,11.9s-42.68-5.1-57.86-11.9Zm-162.8,31L761.86,689H774l16.48,58.47Zm38.21,281.1H799V842.92h17.55Zm0-194.06h-18.4l-3.63-16.06h22Zm0-24.47H792.64l-4.88-21.63h28.8Zm0-30h-30.7l-5.44-24.1h36.14Zm125.21,248.58H825v-45.7H941.77Zm-77.59-54.12V835.52h38.4V974.44h-38.4Zm77.59-135.73V974.44H911V831.31a4.21,4.21,0,0,0-4.21-4.21H860a4.21,4.21,0,0,0-4.21,4.21V974.44H825V755.88H941.77ZM946,747.46H799.24l-13.12-46.54c15.82,14.69,47.2,35.82,97.05,35.82h0c49.85,0,81.24-21.13,97.06-35.82l-13.12,46.54Zm21.76,281.1H950.18V842.92h17.55Zm.84-194.06h-18.4V818.45h22ZM974.1,810H950.18V788.4H979Zm-23.92-30v-24.1h36.14L980.88,780Z" transform="translate(-65 -112.85)"/><path class="cls-1" d="M739.13,580.5a4.21,4.21,0,0,0,4,3.07,4.13,4.13,0,0,0,1.15-.16,4.21,4.21,0,0,0,2.91-5.19l-2.12-7.53A4.21,4.21,0,0,0,737,573Z" transform="translate(-65 -112.85)"/><path class="cls-1" d="M847.25,524.24a4.21,4.21,0,0,0,4.21-4.21V491.5a4.21,4.21,0,1,0-8.42,0V520A4.21,4.21,0,0,0,847.25,524.24Z" transform="translate(-65 -112.85)"/><path class="cls-1" d="M1022,583.41a4.16,4.16,0,0,0,1.15.16,4.22,4.22,0,0,0,4-3.06l2.13-7.53a4.21,4.21,0,1,0-8.1-2.29l-2.13,7.53A4.2,4.2,0,0,0,1022,583.41Z" transform="translate(-65 -112.85)"/><path class="cls-1" d="M919.11,524.24a4.21,4.21,0,0,0,4.21-4.21V491.5a4.21,4.21,0,1,0-8.42,0V520A4.21,4.21,0,0,0,919.11,524.24Z" transform="translate(-65 -112.85)"/><path class="cls-1" d="M468.06,593.21a4.21,4.21,0,0,0,1.43-.25c5.82-2.1,11.8-4,17.77-5.8a4.21,4.21,0,1,0-2.37-8.08c-6.13,1.8-12.27,3.8-18.25,6a4.21,4.21,0,0,0,1.43,8.17Z" transform="translate(-65 -112.85)"/><path class="cls-1" d="M302.52,722.36a4.21,4.21,0,0,0,5.79-1.4c8.14-13.33,31.79-47.91,75.39-81.08a4.21,4.21,0,1,0-5.1-6.7c-44.73,34-69.08,69.66-77.47,83.39A4.21,4.21,0,0,0,302.52,722.36Z" transform="translate(-65 -112.85)"/><path class="cls-1" d="M752.08,1001.66c-6.41-4.37-10.61-31.55-12.41-43.16-.28-1.78-.53-3.42-.77-4.87a4.2,4.2,0,0,0-1.13-2.26c-2.55-2.62-8-5.06-15.19-7.31a359.82,359.82,0,0,1,10.63-45.42,4.21,4.21,0,0,0-3.07-5.32c-16.86-3.95-35.58-4.61-53.16-3.72,5.89-19.08,27.55-89.48,36.87-122.09a4.21,4.21,0,0,0-2.78-5.17c-49.86-15.81-116.62-6.67-129.49-4.68C530.35,709.3,501,638.86,500.64,638l0,0a4.11,4.11,0,0,0-.43-.77c0-.07-.11-.13-.16-.19a4.11,4.11,0,0,0-.45-.5l-.09-.09-.16-.11a4.08,4.08,0,0,0-.5-.34l-.3-.16a4.4,4.4,0,0,0-.55-.21l-.32-.1a4.4,4.4,0,0,0-.76-.1h-.3a3.85,3.85,0,0,0-.73.08h-.09c-112.08,26-168.41,115.8-173.5,137.59a99.18,99.18,0,0,0-2.12,22c-7.8-2.38-25-9-52.53-26.44-21.84-13.88-45.14-16.12-64.22-14.37h-.11A136.67,136.67,0,0,0,170,761.72a4.21,4.21,0,0,0-2.55,5.31l5.69,16.8v0l9,26.5h0l9,26.51h0l9,26.51h0l9,26.51h0l2.48,7.31c-15.88.87-30.15,4.77-42.21,11.69a4.21,4.21,0,0,0-.26,7.14c9.06,6.11,12.41,13.84,10.59,24.17a84.85,84.85,0,0,0-13.83,6.31,4.21,4.21,0,0,0-.26,7.14c18.06,12.17,26,33.35,24.21,64.74a4.26,4.26,0,0,0,.13,1.21v13.06a4.21,4.21,0,0,0,4.21,4.21H726a4.21,4.21,0,0,0,4.21-4.21v-22.13l19.81-1.21a4.21,4.21,0,0,0,2.12-7.68ZM673.54,872.18l-22,19.74c-13.18,1.71-24.49,3.9-32.18,5.58l64-57.39C679.7,852.11,676.27,863.28,673.54,872.18Zm-4.81,15.62-.74,2.39-2.12.17Zm19.36-63.24L586,916.1c-.93-.75-2-1.56-3.09-2.42l7.29-24.6,107.5-96.39C694.68,802.79,691.38,813.73,688.09,824.56Zm-95.41,97.52-.34-.35,14.49-13,5.35,18.47-22.26,20c-1.75.43-3.4.87-4.87,1.31,5.35-13.78,8.43-21.84,8.5-22A4.21,4.21,0,0,0,592.68,922.08Zm22.1,14.1,2.59,9a72,72,0,0,0-12.25-.29Zm89.83-167c-.73,2.53-1.52,5.24-2.36,8.1l-107.5,96.39L604.14,842l85.15-76.35C694.52,766.61,699.66,767.78,704.62,769.19ZM678.54,764,608.7,826.61l9.38-31.67L654.78,762C662.63,762.34,670.63,763,678.54,764Zm-63-1.38c8.15-.53,17.28-.88,26.89-.85L617,784.57a170.73,170.73,0,0,1-15-9.83Zm-13.86,1.12-6.49,5.82q-2.76-2.2-5.44-4.49C593,764.63,597.07,764.17,601.73,763.72ZM499.66,656.1a447.16,447.16,0,0,0,24.64,44c12.52,19.67,30.37,44,52.68,64.76a4.19,4.19,0,0,0,.8.74q7,6.47,14.62,12.37a4.17,4.17,0,0,0,.9.69,185.19,185.19,0,0,0,17.31,11.88L575.67,908.49c-16.19-11-45.23-27.07-92.65-42.36ZM330.49,775c4.57-19.56,58.56-103.51,161.6-129.94L474.78,863.53c-36.53-11.19-83.24-21.77-142.36-29.38C330.72,824.67,326,794.37,330.49,775Zm-7.33,55c.18,1.11.34,2.13.5,3.06l-3.45-.41Zm-2.77-26.11c.28,5.69.8,11.17,1.38,16.05L309,831.39l-7.3-.78a4.24,4.24,0,0,0-4.56,3.36c-.15.76-.84,4.26-1.87,9.73L234.74,898a143.53,143.53,0,0,0-14.36-1l-2.45-7.22,97.48-87.4C317.45,803.08,319.1,803.55,320.39,803.89ZM266,904.54c-5.16-1.55-11-3.07-17.24-4.34-1.07-.22-2.13-.4-3.2-.59l47.27-42.39c-1.41,7.88-3,17.28-4.63,27.4Zm20.19-6.8c-.65,4.37-1.28,8.81-1.88,13.27-2.34-1-5.4-2.17-9.05-3.46ZM176.76,768.29a129.64,129.64,0,0,1,13.95-3.67l-11.65,10.44ZM182,783.74l23.7-21.25a103.72,103.72,0,0,1,24.88.95L188,801.58Zm9,26.51,49.71-44.57a85.15,85.15,0,0,1,17.79,7.3L197,828.1Zm9,26.51L266,777.53q8.45,5.28,15.62,9.26L206,854.61Zm9,26.51,80.56-72.23c6.7,3.49,12.32,6.06,17,8L215,881.13Zm-29.82,50c40.26-18.68,91.7,1.1,104,6.39-1.24,9.86-2.28,19.62-3,28.71a196.7,196.7,0,0,0-37.58-11.08c-20.12-3.75-38.22-3.64-54.13.26A29,29,0,0,0,179.12,913.3Zm-3.36,37.56c40.29-18.59,91.73,1.25,103.83,6.44-.61,11.73-.46,21.81.84,28.75v28.38H198.35C199.15,985.78,191.57,964.44,175.76,950.86Zm312.82,77.61H198.32v-5.62H488.58Zm-199.73-14V989.79c6.67-.16,13.87-.28,21.32-.36v25Zm29.73,0V989.35c4.59,0,9.21,0,13.83,0l7.49,0v25.11Zm29.74,0V989.37c6.56.05,13.71.14,21.32.28v24.78Zm29.73,0v-24.6c6.86.16,14,.36,21.32.61v24Zm29.74,0V990.76c7,.28,14.15.62,21.32,1v22.65Zm29.73,0V992.27c7.14.44,14.27.94,21.32,1.52v20.64Zm51.05,0H467.26V994.51c7.26.66,14.41,1.4,21.32,2.23ZM332.41,980.89c-15.31,0-30.83.18-44.18.49-.81-6.73-.73-15.92-.09-26.4,0-.1,0-.21,0-.31,2.53-40.32,13.57-99.83,16.54-115.29,197.39,21,268.1,76.17,280,86.71-3.3,8.6-14.46,37.51-29.91,76.6C510.49,983.78,397.3,980.89,332.41,980.89Zm294.26,31.51s0,0,0,0v16H497V997.83c24.55,3.33,45.54,7.94,58.15,14.31a4.2,4.2,0,0,0,5.81-2.21c7.89-19.93,14.73-37.4,20.08-51.14,4.93-2,21.62-7.83,38.91-4.79l7.3,25.22-.58,33.14S626.67,1012.38,626.67,1012.39Zm2.81-82.48a4.22,4.22,0,0,0-1.41,3.07l-.31,17.71-12.62-43.57c15-3.55,67.5-14.59,108.73-6.53a362.78,362.78,0,0,0-9.44,41.18c-27.91-7.11-70.69-11.77-81.72-12.89A4.23,4.23,0,0,0,629.48,929.91Zm13,98.56h-7.37v-12.08l7.37-.45Zm15.79,0h-7.37v-13.05l7.37-.45Zm15.79,0h-7.37v-14L674,1014Zm15.79,0h-7.37v-15l7.37-.45Zm15.79,0h-7.37v-16l7.37-.45Zm16.14,0H714v-16.92l7.72-.47ZM647,1007.22c-.12,0-.23,0-.35,0a4.07,4.07,0,0,0-.94.12l-10.56.65,1.23-70.23c25,2.71,59.46,7.68,79.62,13.08a4.16,4.16,0,0,0,1.32.42h.23c6.2,1.73,10.89,3.5,13.27,5.24.16,1,.34,2.15.52,3.32,2.58,16.64,5.35,32.28,10.2,41.64Z" transform="translate(-65 -112.85)"/><path class="cls-1" d="M686.65,722.44a4.21,4.21,0,0,0-.88,8.37q5.08.53,10.15,1.21a4,4,0,0,0,.57,0,4.21,4.21,0,0,0,.56-8.38Q691.86,723,686.65,722.44Z" transform="translate(-65 -112.85)"/><path class="cls-1" d="M635.37,720.12c-12.9.09-26.33.65-39.9,1.65a4.21,4.21,0,0,0,.31,8.41h.31c13.39-1,26.62-1.54,39.34-1.63a4.21,4.21,0,0,0,4.18-4.24A4.31,4.31,0,0,0,635.37,720.12Z" transform="translate(-65 -112.85)"/><path class="cls-1" d="M1050.33,938.65a22.52,22.52,0,0,0-18.35,9.49,22.54,22.54,0,0,0-40.91,13.07,4.21,4.21,0,0,0,4.21,4.21h32.5V1029a4.21,4.21,0,1,0,8.42,0V965.42h32.49a4.21,4.21,0,0,0,4.21-4.21A22.59,22.59,0,0,0,1050.33,938.65ZM1000.13,957a14.14,14.14,0,0,1,27,0Zm36.7,0a14.14,14.14,0,0,1,27,0Z" transform="translate(-65 -112.85)"/><path class="cls-1" d="M1868.2,893.76a22.52,22.52,0,0,0-18.35,9.49,22.54,22.54,0,0,0-40.91,13.07,4.21,4.21,0,0,0,4.21,4.21h32.5V1029a4.21,4.21,0,0,0,8.42,0V920.53h32.49a4.21,4.21,0,0,0,4.21-4.21A22.59,22.59,0,0,0,1868.2,893.76ZM1818,912.11a14.14,14.14,0,0,1,27,0Zm36.7,0a14.14,14.14,0,0,1,27,0Z" transform="translate(-65 -112.85)"/><path class="cls-1" d="M124.26,958.29a22.52,22.52,0,0,0-18.35,9.49A22.54,22.54,0,0,0,65,980.85a4.21,4.21,0,0,0,4.21,4.21H101.7V1029a4.21,4.21,0,0,0,8.42,0V985.06h32.49a4.21,4.21,0,0,0,4.21-4.21A22.58,22.58,0,0,0,124.26,958.29Zm-50.2,18.35a14.15,14.15,0,0,1,27,0Zm36.7,0a14.14,14.14,0,0,1,27,0Z" transform="translate(-65 -112.85)"/><path class="cls-2" d="M143.75,248.09l.67-6.7H105.56q-3.35,0-3.35-2.35t2.85-5.19a8.65,8.65,0,0,1,6.2-2.85h36.52q3-7.36,19.43-7.37,5,0,5,3.35v.67l-2,3q29.14,0,43.21-.67,2,0,2,2.18t-3.35,5.19a18.2,18.2,0,0,1-9.38,4H166.2v.67q-12.74,35.85-21.27,99.49t-8.54,91.12a10.82,10.82,0,0,0,1,5.36q40.2-.67,48.24-1,2,0,2,2.18t-3.35,5.19a18.19,18.19,0,0,1-9.38,4H135.38a11.77,11.77,0,0,1-7.54,2.68q-4.19,0-6.2-2.68H77.76q-3.35,0-3.35-2.35t2.85-5.19a8.65,8.65,0,0,1,6.2-2.85h37.19q11.05-117.59,23.11-179.9Z" transform="translate(-65 -112.85)"/><path class="cls-2" d="M228.84,362.33l-1-4.35q0-1.33,4.35-13.57t9.71-19.09q5.35-6.86,16.42-6.87,4.35,0,5,3-27.47,56.28-32.83,80.4,55.27-89.11,84.75-89.11,6.7,0,6.7,4.35a12.8,12.8,0,0,1-2.34,6.7q-17.09,28.48-31.83,65.33T273.06,444.4q0,6,2.68,6l13.06-6.7q2,0,2,3t-7.37,8q-7.37,5-14.74,5-9.72,0-9.72-13.74t5.36-31.15q5.35-17.41,16.75-44.56t12.23-29.48a13.08,13.08,0,0,0,.84-4.35q0-2-1-2-6.37,0-40.87,49.92t-35.18,59q-.34,2.35-6.36,6.53t-9.21,4.19c-2.13,0-3.29-.79-3.52-2.34q.68,1,12.4-33.5Q228.84,365.35,228.84,362.33Z" transform="translate(-65 -112.85)"/><path class="cls-2" d="M404.38,333.52q-.68,6.7-8.71,19.09T383.28,365q-1.34,0-1.34-2.51t3.68-11.72q3.68-9.21,3.69-11.89,0-5-6-5-1,0-11.06,1.67-8.38,2-21.94,10.72t-13.57,19.09a13.52,13.52,0,0,0,1.67,6.7q4.35,8.72,15.24,14.74t18.76,11.39q7.87,5.36,7.87,14.07,0,14.75-22.61,28.31T319,454.12a5.24,5.24,0,0,1-4.35-2.18,7.32,7.32,0,0,1-1.68-4.52q0-4,3.69-4,11.06,0,31-6.87t19.93-14.91q0-8.37-23.79-22.78a83.65,83.65,0,0,1-16.58-12.9q-7.54-7.54-7.54-13.9a16.52,16.52,0,0,1,3.52-10.72q3.52-4.35,6.87-7.87t6.37-6.2a74.19,74.19,0,0,1,6.87-5.36q3.85-2.68,6.87-4.69a65.75,65.75,0,0,1,7-4l6.36-3.35a104.48,104.48,0,0,1,10.05-4.35q3-1,6.36-2.35,7.7-3,12.4-3Q404.38,320.12,404.38,333.52Z" transform="translate(-65 -112.85)"/><path class="cls-2" d="M424.82,362.33l-1-4.35q0-1.33,4.19-13.4t9.88-19.09q5.69-7,16.75-7,4.35,0,5,3-5.36,8.38-14.24,27.8t-12.56,28.81a320,320,0,0,0-14.74,48.58,8.67,8.67,0,0,0-.33,2.68q0,4,3.35,4,2,0,10.89-5t11.39-5c1.67,0,2.62.45,2.85,1.34q0,4-17.08,14.91t-23.45,10.89q-6.37,0-6.37-6,0-3,2.51-10.22l6.37-18.26q3.85-11.06,5.86-17.08t4.19-12.4q2.17-6.36,3.18-9.55t2-6.2A46.42,46.42,0,0,0,424.82,362.33Zm53.93-98.15q0,4.36-6.36,11.06t-8,10.38Q460,296.67,455,298q-6.71,0-6.7-11.06,0-7,10.39-15.41t18.09-8.37Q478.41,263.17,478.75,264.17Z" transform="translate(-65 -112.85)"/><path class="cls-2" d="M592.31,231.34q1,.68,1,4.52t-5.19,18.43q-5.2,14.57-14.4,37.85t-14.24,38a1.64,1.64,0,0,1,1.17-.33c.55,0,1.34.79,2.34,2.34a8.19,8.19,0,0,1,1.51,4.35c0,1.34-1.29,2-3.85,2s-4-.33-4.19-1q-6.71,15.07-16.92,48.91T529.33,428q0,7.71,4.35,7.71,8.37,0,23.79-17.75,5-6,6-6c.67,0,1,.45,1,1.34a15.74,15.74,0,0,1-.33,3q-1.34,4-2,4a177.47,177.47,0,0,1-21.44,17.59q-13.74,9.89-21.44,9.88-6.37,0-6.37-7,0-18.09,12.73-55.27a433.12,433.12,0,0,1-35,42.88q-20.6,22.45-32.33,22.45-7,0-7-10.05,0-14.4,10.05-41.71a268.63,268.63,0,0,1,24-49.58q13.9-22.27,23.28-22.28h1.34q2.34,0,5.53-2.51a11.79,11.79,0,0,1,7.54-2.51q4.35,0,13.57,2.68t9.71,2.68q.5,0,12.56-32.66t12.73-34.67q-3.69,0-3.69-4,0-9.37,10.05-24.46,1.33-2.68,5.53-2.68A20,20,0,0,1,592.31,231.34Zm-47.9,103.52q0-3.68-19.77-3.69a37.86,37.86,0,0,0-8.37.67q-7.37,2-28.31,40.54T467,428.66q0,5.36,3.35,5.36t9.71-5.36a113.46,113.46,0,0,0,11.73-11.39q18.09-20.1,18.42-21.1,16.08-18.09,29.15-48.91Q544.07,335.53,544.41,334.86Z" transform="translate(-65 -112.85)"/><path class="cls-2" d="M608.73,384.77l-12.06-.33q-11.06,28.14-11.06,42.88t10.05,14.74q11.72,0,32.83-26.46,7-9,8.38-9c1.56,0,2.34.9,2.34,2.68q0,9.38-18.42,26T593,451.77a26.18,26.18,0,0,1-16.25-5.19q-6.87-5.19-6.87-17.25,0-11.05,5.53-28.31t5.86-19.93q-5-1.33-5-5.19t5.69-3.85h2.35q13.39-26.46,15.41-30.49,9.37-17.75,35.84-17.75,11.38,0,15.75,20.44a94.08,94.08,0,0,1,2,17.25,16.81,16.81,0,0,1-5,12.06,26.69,26.69,0,0,1-13.06,7.2A96.56,96.56,0,0,1,608.73,384.77Zm-9-9.72,13.4.67q13.73,0,19.77-3t6.2-11.89a53,53,0,0,0-1.51-14.91q-3-10.72-8.37-10.72-6.71,0-15.91,14.4A152.15,152.15,0,0,0,599.68,375.06Z" transform="translate(-65 -112.85)"/><path class="cls-2" d="M774.88,448.76l-82.41-.33a11.77,11.77,0,0,1-7.54,2.68q-4.19,0-6.2-2.68H669c-1.56,0-2.35-.55-2.35-1.67q0-2.34,3.85-6.2a21.32,21.32,0,0,1,7.54-5.19q10.05-110.88,19.77-167.5V257.81q0-12.39,6.2-20.94T723,228.33q5,0,5,3t-3.69,11.39q-15.07,33.16-22.95,97t-7.87,93a17.2,17.2,0,0,0,1,5.36l89.11.33q21.44,0,38.53-5.36h.33c.89,0,1.34,1.4,1.34,4.19a9.82,9.82,0,0,1-3,7.2q-5,5-24.12,5Z" transform="translate(-65 -112.85)"/><path class="cls-2" d="M868.69,358l-16.75.33q-3.35,0-3.35-2.34t2.85-5.19a8.65,8.65,0,0,1,6.2-2.85h16.75Q908.21,293,956.79,239.38a9.55,9.55,0,0,1-2-5.86q0-3.18,3.69-6.53t11.22-3.35q7.54,0,7.54,7a11.81,11.81,0,0,1-1,4.69q6,15.41,14.4,50.42t12.06,61.81q11.06.34,11.05,3.69l-10,5.36q0,1.68,2.34,18.09,8,51.26,8,66,0,3.35-4.86,6.2a18.14,18.14,0,0,1-9,2.85q-4.19,0-4.19-2.68v-4q0-12.73-2.68-44.39t-4-41.71q-102.51,1-107.2,1-29.82,54.61-34.84,89.11-.34,3.68-6.36,3.69t-6.37-.84a4.09,4.09,0,0,1-.33-1.51l.67-5.36Q841.55,405.55,868.69,358Zm119.6-10a458,458,0,0,0-11.22-57.29q-7.87-30.48-12.56-44.89-20.44,21.78-42.71,50.75t-35,52.09Z" transform="translate(-65 -112.85)"/></svg>